<svg xmlns="http://www.w3.org/2000/svg" version="1.1" xmlns:xlink="http://www.w3.org/1999/xlink" xmlns:svgjs="http://svgjs.dev/svgjs" width="1500" height="1500" viewBox="0 0 1500 1500"><rect width="1500" height="1500" fill="#000000"></rect><g transform="matrix(0.6666666666666666,0,0,0.6666666666666666,249.39393939393938,571.6644138124874)"><svg viewBox="0 0 396 141" data-background-color="#ffffff" preserveAspectRatio="xMidYMid meet" height="534" width="1500" xmlns="http://www.w3.org/2000/svg" xmlns:xlink="http://www.w3.org/1999/xlink"><g id="tight-bounds" transform="matrix(1,0,0,1,0.2400000000000091,0.13291475404292896)"><svg viewBox="0 0 395.52 140.73417049191414" height="140.73417049191414" width="395.52"><g><svg viewBox="0 0 395.52 140.73417049191414" height="140.73417049191414" width="395.52"><g><svg viewBox="0 0 395.52 140.73417049191414" height="140.73417049191414" width="395.52"><g id="textblocktransform"><svg viewBox="0 0 395.52 140.73417049191414" height="140.73417049191414" width="395.52" id="textblock"><g><rect width="395.52" height="105.01431649685671" fill="none" stroke-width="9.018103199999999" stroke="#ffffff" data-fill-palette-color="none" data-stroke-palette-color="tertiary"></rect><rect width="395.52" height="35.71985399505745" y="105.01431649685671" fill="#ffffff" data-fill-palette-color="tertiary"></rect></g><g><svg viewBox="0 0 395.52 105.01431649685671" height="105.01431649685671" width="395.52"><g transform="matrix(1,0,0,1,23.607599999999998,23.607599999999998)"><svg width="348.3048" viewBox="2.08 -36.89 225.22 37.38" height="57.79911649685671" data-palette-color="#1ebbd7"><path d="M2.08-29.03L2.08-34.69 33.42-34.69 33.42-29.03 20.83-29.03 20.83 0 14.67 0 14.67-29.03 2.08-29.03ZM50.49-24.58L50.49-24.58Q56.54-24.58 60.24-21.4 63.94-18.21 63.94-12.5L63.94-12.5Q63.94-6.49 60.17-3 56.39 0.49 50.02 0.49L50.02 0.49Q43.97 0.49 40.34-2.8 36.72-6.08 36.72-11.82L36.72-11.82Q36.72-17.7 40.41-21.14 44.11-24.58 50.49-24.58ZM50.1-19.17L50.1-19.17Q48.22-19.17 46.56-18.46 44.89-17.75 43.76-16.16 42.62-14.58 42.62-12.43L42.62-12.43Q42.62-9.25 44.82-7.09 47.02-4.93 50.53-4.93L50.53-4.93Q53.73-4.93 55.88-6.81 58.03-8.69 58.03-11.79L58.03-11.79Q58.03-13.57 57.32-15.03 56.61-16.48 55.47-17.36 54.32-18.24 52.93-18.7 51.54-19.17 50.1-19.17ZM84.05-24.58L84.05-24.58Q90.11-24.58 93.81-21.4 97.5-18.21 97.5-12.5L97.5-12.5Q97.5-6.49 93.73-3 89.96 0.49 83.59 0.49L83.59 0.49Q77.53 0.49 73.91-2.8 70.28-6.08 70.28-11.82L70.28-11.82Q70.28-17.7 73.98-21.14 77.68-24.58 84.05-24.58ZM83.66-19.17L83.66-19.17Q81.78-19.17 80.12-18.46 78.46-17.75 77.33-16.16 76.19-14.58 76.19-12.43L76.19-12.43Q76.19-9.25 78.39-7.09 80.59-4.93 84.1-4.93L84.1-4.93Q87.3-4.93 89.45-6.81 91.6-8.69 91.6-11.79L91.6-11.79Q91.6-13.57 90.89-15.03 90.18-16.48 89.03-17.36 87.89-18.24 86.49-18.7 85.1-19.17 83.66-19.17ZM105.56 0L105.56-36.89 111.56-36.89 111.56 0 105.56 0ZM132.56-18.9L132.56-18.9Q130.46-18.9 126.85-17.58L126.85-17.58 126.85 0 120.84 0 120.84-24.12 125.31-24.12 125.99-22.53Q130.31-24.58 134.51-24.58 138.71-24.58 141.08-22.17L141.08-22.17Q145.62-24.56 150.77-24.56L150.77-24.56Q153.02-24.56 154.73-24.02 156.44-23.49 157.47-22.58 158.51-21.68 159.16-20.32 159.8-18.97 160.05-17.54 160.29-16.11 160.29-14.31L160.29-14.31 160.29 0 154.29 0 154.29-14.23Q154.29-16.53 153.08-17.71 151.87-18.9 149.18-18.9L149.18-18.9Q146.91-18.9 143.32-17.58L143.32-17.58Q143.54-16.31 143.54-14.14L143.54-14.14 143.54 0 137.54 0 137.54-14.33Q137.54-18.9 132.56-18.9ZM187.12-6.45L187.12-24.12 193.13-24.12 193.13 0 188.66 0 187.95-1.64Q183.04 0.49 178.5 0.49L178.5 0.49Q176.13 0.49 174.4-0.13 172.67-0.76 171.68-1.72 170.69-2.69 170.1-4.13 169.52-5.57 169.35-6.88 169.18-8.2 169.18-9.86L169.18-9.86 169.18-24.12 175.18-24.12 175.18-9.91Q175.18-9.28 175.24-8.79 175.3-8.3 175.6-7.56 175.89-6.81 176.43-6.32 176.97-5.83 178.04-5.47 179.11-5.1 180.58-5.1L180.58-5.1Q183.51-5.1 187.12-6.45L187.12-6.45ZM208.97-11.87L199.11-24.12 206.21-24.12 213.51-15.31 220.54-24.12 227.3-24.12 217.34-11.84 226.82 0 219.71 0 212.75-8.3 206.14 0 199.4 0 208.97-11.87Z" opacity="1" transform="matrix(1,0,0,1,0,0)" fill="#ffffff" class="wordmark-text-0" data-fill-palette-color="primary" id="text-0"></path></svg></g></svg></g></svg></g></svg></g></svg></g><defs></defs></svg><rect width="395.52" height="140.73417049191414" fill="none" stroke="none" visibility="hidden"></rect></g></svg></g></svg>